<?xml version="1.0" encoding="utf-8"?>
<!-- Generator: Adobe Illustrator 24.0.1, SVG Export Plug-In . SVG Version: 6.00 Build 0)  -->
<svg version="1.1" id="Capa_1" xmlns="http://www.w3.org/2000/svg" xmlns:xlink="http://www.w3.org/1999/xlink" x="0px" y="0px"
	 viewBox="0 0 93 93" style="enable-background:new 0 0 93 93;" xml:space="preserve">
<path d="M46.5,75.5c0,1.6-0.9,3.1-2.4,3.8c-0.6,0.3-1.2,0.4-1.8,0.4c-1,0-1.9-0.3-2.7-1L16.5,59.6H4.2c-2.3,0-4.2-1.9-4.2-4.2V38.6
	c0-2.3,1.9-4.2,4.2-4.2h12.3l23.1-19.1c1.3-1,3-1.3,4.5-0.6c1.5,0.7,2.4,2.2,2.4,3.8L46.5,75.5L46.5,75.5z M77.1,47l8.9-8.9
	c1.8-1.8,1.8-4.6,0-6.4c-1.8-1.8-4.6-1.8-6.4,0l-8.9,8.9l-8.9-8.9c-1.8-1.8-4.6-1.8-6.4,0c-1.8,1.8-1.8,4.6,0,6.4l8.9,8.9l-8.9,8.9
	c-1.8,1.8-1.8,4.6,0,6.4c0.9,0.9,2,1.3,3.2,1.3s2.3-0.4,3.2-1.3l8.9-8.9l8.9,8.9c0.9,0.9,2,1.3,3.2,1.3s2.3-0.4,3.2-1.3
	c1.8-1.8,1.8-4.6,0-6.4L77.1,47z"/>
</svg>
